<mxfile host="app.diagrams.net" agent="Mozilla/5.0 (Windows NT 10.0; Win64; x64) AppleWebKit/537.36 (KHTML, like Gecko) Chrome/130.0.0.0 Safari/537.36" version="24.8.3">
  <diagram name="第 1 页" id="Skwe0buN1VDlV5Pr2Fpp">
    <mxGraphModel dx="298" dy="301" grid="1" gridSize="10" guides="1" tooltips="1" connect="1" arrows="1" fold="1" page="1" pageScale="1" pageWidth="827" pageHeight="1169" math="0" shadow="0">
      <root>
        <mxCell id="0" />
        <mxCell id="1" parent="0" />
        <mxCell id="q8A6Jre_Dmv5E1ko5mhS-2" value="&lt;h1 style=&quot;margin-top: 0px;&quot;&gt;&lt;font style=&quot;font-size: 25px;&quot;&gt;OS_进程与线程&lt;/font&gt;&lt;/h1&gt;" style="text;html=1;whiteSpace=wrap;overflow=hidden;rounded=0;" vertex="1" parent="1">
          <mxGeometry x="40" y="20" width="180" height="120" as="geometry" />
        </mxCell>
        <mxCell id="q8A6Jre_Dmv5E1ko5mhS-20" style="edgeStyle=orthogonalEdgeStyle;rounded=0;orthogonalLoop=1;jettySize=auto;html=1;exitX=0.5;exitY=0;exitDx=0;exitDy=0;entryX=0;entryY=0.5;entryDx=0;entryDy=0;shape=flexArrow;" edge="1" parent="1" source="q8A6Jre_Dmv5E1ko5mhS-11" target="q8A6Jre_Dmv5E1ko5mhS-12">
          <mxGeometry relative="1" as="geometry" />
        </mxCell>
        <mxCell id="q8A6Jre_Dmv5E1ko5mhS-21" style="edgeStyle=orthogonalEdgeStyle;rounded=0;orthogonalLoop=1;jettySize=auto;html=1;exitX=1;exitY=0.5;exitDx=0;exitDy=0;entryX=0;entryY=0.5;entryDx=0;entryDy=0;shape=flexArrow;" edge="1" parent="1" source="q8A6Jre_Dmv5E1ko5mhS-11" target="q8A6Jre_Dmv5E1ko5mhS-13">
          <mxGeometry relative="1" as="geometry" />
        </mxCell>
        <mxCell id="q8A6Jre_Dmv5E1ko5mhS-22" style="edgeStyle=orthogonalEdgeStyle;rounded=0;orthogonalLoop=1;jettySize=auto;html=1;exitX=0.5;exitY=1;exitDx=0;exitDy=0;entryX=0;entryY=0.5;entryDx=0;entryDy=0;shape=flexArrow;" edge="1" parent="1" source="q8A6Jre_Dmv5E1ko5mhS-11" target="q8A6Jre_Dmv5E1ko5mhS-14">
          <mxGeometry relative="1" as="geometry" />
        </mxCell>
        <mxCell id="q8A6Jre_Dmv5E1ko5mhS-11" value="&lt;font style=&quot;font-size: 30px;&quot;&gt;进程与线程&lt;/font&gt;" style="rounded=0;whiteSpace=wrap;html=1;fontSize=20;fillColor=none;strokeColor=none;" vertex="1" parent="1">
          <mxGeometry x="50" y="740" width="120" height="60" as="geometry" />
        </mxCell>
        <mxCell id="q8A6Jre_Dmv5E1ko5mhS-12" value="进程基础知识" style="rounded=0;whiteSpace=wrap;html=1;fontSize=20;dashed=1;" vertex="1" parent="1">
          <mxGeometry x="240" y="350" width="140" height="60" as="geometry" />
        </mxCell>
        <mxCell id="q8A6Jre_Dmv5E1ko5mhS-13" value="线程与并发" style="rounded=0;whiteSpace=wrap;html=1;fontSize=20;dashed=1;" vertex="1" parent="1">
          <mxGeometry x="260" y="740" width="140" height="60" as="geometry" />
        </mxCell>
        <mxCell id="q8A6Jre_Dmv5E1ko5mhS-14" value="CPU调度" style="rounded=0;whiteSpace=wrap;html=1;fontSize=20;dashed=1;" vertex="1" parent="1">
          <mxGeometry x="260" y="1010" width="140" height="60" as="geometry" />
        </mxCell>
        <mxCell id="q8A6Jre_Dmv5E1ko5mhS-35" value="程序与进程" style="text;html=1;align=center;verticalAlign=middle;whiteSpace=wrap;rounded=0;" vertex="1" parent="1">
          <mxGeometry x="425" y="270" width="60" height="30" as="geometry" />
        </mxCell>
        <mxCell id="q8A6Jre_Dmv5E1ko5mhS-37" value="" style="endArrow=none;html=1;rounded=0;" edge="1" parent="1">
          <mxGeometry width="50" height="50" relative="1" as="geometry">
            <mxPoint x="405" y="300" as="sourcePoint" />
            <mxPoint x="495" y="300" as="targetPoint" />
            <Array as="points" />
          </mxGeometry>
        </mxCell>
        <mxCell id="q8A6Jre_Dmv5E1ko5mhS-38" value="" style="endArrow=none;html=1;rounded=0;" edge="1" parent="1">
          <mxGeometry width="50" height="50" relative="1" as="geometry">
            <mxPoint x="405" y="340" as="sourcePoint" />
            <mxPoint x="495" y="340" as="targetPoint" />
            <Array as="points" />
          </mxGeometry>
        </mxCell>
        <mxCell id="q8A6Jre_Dmv5E1ko5mhS-40" value="PC" style="text;html=1;align=center;verticalAlign=middle;whiteSpace=wrap;rounded=0;" vertex="1" parent="1">
          <mxGeometry x="425" y="310" width="60" height="30" as="geometry" />
        </mxCell>
        <mxCell id="q8A6Jre_Dmv5E1ko5mhS-41" value="" style="endArrow=none;html=1;rounded=0;" edge="1" parent="1">
          <mxGeometry width="50" height="50" relative="1" as="geometry">
            <mxPoint x="400" y="400" as="sourcePoint" />
            <mxPoint x="490" y="400" as="targetPoint" />
            <Array as="points" />
          </mxGeometry>
        </mxCell>
        <mxCell id="q8A6Jre_Dmv5E1ko5mhS-42" value="进程的内存结构" style="text;html=1;align=center;verticalAlign=middle;whiteSpace=wrap;rounded=0;" vertex="1" parent="1">
          <mxGeometry x="415" y="360" width="60" height="30" as="geometry" />
        </mxCell>
        <mxCell id="q8A6Jre_Dmv5E1ko5mhS-44" value="" style="endArrow=none;html=1;rounded=0;" edge="1" parent="1">
          <mxGeometry width="50" height="50" relative="1" as="geometry">
            <mxPoint x="400" y="470" as="sourcePoint" />
            <mxPoint x="490" y="470" as="targetPoint" />
            <Array as="points" />
          </mxGeometry>
        </mxCell>
        <mxCell id="q8A6Jre_Dmv5E1ko5mhS-46" value="并发的进程" style="text;html=1;align=center;verticalAlign=middle;whiteSpace=wrap;rounded=0;" vertex="1" parent="1">
          <mxGeometry x="405" y="430" width="60" height="30" as="geometry" />
        </mxCell>
        <mxCell id="q8A6Jre_Dmv5E1ko5mhS-47" value="" style="endArrow=none;html=1;rounded=0;" edge="1" parent="1">
          <mxGeometry width="50" height="50" relative="1" as="geometry">
            <mxPoint x="400" y="530" as="sourcePoint" />
            <mxPoint x="490" y="530" as="targetPoint" />
            <Array as="points" />
          </mxGeometry>
        </mxCell>
        <mxCell id="q8A6Jre_Dmv5E1ko5mhS-48" value="进程的定义、进程地址空间、" style="text;html=1;align=center;verticalAlign=middle;whiteSpace=wrap;rounded=0;" vertex="1" parent="1">
          <mxGeometry x="415" y="500" width="60" height="30" as="geometry" />
        </mxCell>
        <mxCell id="q8A6Jre_Dmv5E1ko5mhS-49" value="" style="endArrow=none;html=1;rounded=0;" edge="1" parent="1">
          <mxGeometry width="50" height="50" relative="1" as="geometry">
            <mxPoint x="400" y="610" as="sourcePoint" />
            <mxPoint x="490" y="610" as="targetPoint" />
            <Array as="points" />
          </mxGeometry>
        </mxCell>
        <mxCell id="q8A6Jre_Dmv5E1ko5mhS-51" value="进程状态" style="text;html=1;align=center;verticalAlign=middle;whiteSpace=wrap;rounded=0;" vertex="1" parent="1">
          <mxGeometry x="405" y="570" width="60" height="30" as="geometry" />
        </mxCell>
      </root>
    </mxGraphModel>
  </diagram>
</mxfile>
